{"title":"The.Forest.2016.1080p.WEB-DL.DD5.1.H264-RARBG","uid":13998320,"size":3526545138,"categoryP":"video","categoryS":"hd___movies","magnet":"?xt=urn:btih:05df0580daf97dff9b7c2d41d742d2f4a4daefd9&amp;dn=The.Forest.2016.1080p.WEB-DL.DD5.1.H264-RARBG&amp;tr=udp%3A%2F%2Ftracker.leechers-paradise.org%3A6969&amp;tr=udp%3A%2F%2Fzer0day.ch%3A1337&amp;tr=udp%3A%2F%2Fopen.demonii.com%3A1337&amp;tr=udp%3A%2F%2Ftracker.coppersurfer.tk%3A6969&amp;tr=udp%3A%2F%2Fexodus.desync.com%3A6969","seeders":0,"leechers":1,"uploader":"makintos13","files":5,"time":1458762570,"description":"screens:\r\n   \nhttp://imgmak.com/KFM\r\n   \nhttp://imgmak.com/KFO\r\n   \nhttp://imgmak.com/KFP\r\n   \nhttp://imgmak.com/KFY\r\n   \nhttp://imgmak.com/KF0\r\n\r\n:::::::::::\r\n\r\nThe.Forest.2016.1080p.WEB-DL.DD5.1.H264-RARBG\r\n\r\n\r\nVideo\r\nID                                       : 1\r\nFormat                                   : AVC\r\nFormat/Info                              : Advanced Video Codec\r\nFormat profile                           :   \r\nFormat settings, CABAC                   : Yes\r\nFormat settings, ReFrames                : 4 frames\r\nCodec ID                                 : V_MPEG4/ISO/AVC\r\nDuration                                 : 1h 33mn\r\nBit rate                                 : 4 555 Kbps\r\nWidth                                    : 1 914 pixels\r\nHeight                                   : 1 032 pixels\r\nDisplay aspect ratio                     : 1.85:1\r\nFrame rate mode                          : Constant\r\nFrame rate                               : 23.976 fps\r\nColor space                              : YUV\r\nChroma subsampling                       : 4:2:0\r\nBit depth                                : 8 bits\r\nScan type                                : Progressive\r\nBits/(Pixel*Frame)                       : 0.096\r\nStream size                              : 2.97 GiB (90%)\r\nTitle                                    : The.Forest.2016.1080p.WEB-DL.DD5.1.H264-RARBG\r\nLanguage                                 : English\r\nDefault                                  : Yes\r\nForced                                   : No\r\nColor range                              : Limited\r\nColor primaries                          : BT.709\r\nTransfer characteristics                 : BT.709\r\nMatrix coefficients                      : BT.709\r\n\r\nAudio\r\nID                                       : 2\r\nFormat                                   : AC-3\r\nFormat/Info                              : Audio Coding 3\r\nMode extension                           : CM (complete main)\r\nFormat settings, Endianness              : Big\r\nCodec ID                                 : A_AC3\r\nDuration                                 : 1h 33mn\r\nBit rate mode                            : Constant\r\nBit rate                                 : 384 Kbps\r\nChannel(s)                               : 6 channels\r\nChannel positions                        : Front: L C R, Side: L R, LFE\r\nSampling rate                            : 48.0 KHz\r\nFrame rate                               : 31.250 fps (1536 spf)\r\nCompression mode                         : Lossy\r\nStream size                              : 256 MiB (8%)\r\nTitle                                    : The.Forest.2016.1080p.WEB-DL.DD5.1.H264-RARBG\r\nLanguage                                 : English\r\nDefault                                  : Yes\r\nForced                                   : No\r\n\r\nText\r\nID                                       : 3\r\nFormat                                   : UTF-8\r\nCodec ID                                 : S_TEXT/UTF8\r\nCodec ID/Info                            : UTF-8 Plain Text\r\nLanguage                                 : English\r\nDefault                                  : Yes\r\nForced                                   : No\r\n\r\nMenu\r\n00:00:00.000                             : en:1\r\n00:05:33.000                             : en:2\r\n00:09:31.000                             : en:3\r\n00:15:38.000                             : en:4\r\n00:19:25.000                             : en:5\r\n00:23:39.000                             : en:6\r\n00:28:58.000                             : en:7\r\n00:34:16.000                             : en:8\r\n00:36:59.000                             : en:9\r\n00:40:27.000                             : en:10\r\n00:43:57.000                             : en:11\r\n00:48:49.000                             : en:12\r\n00:53:21.000                             : en:13\r\n00:59:40.000                             : en:14\r\n01:02:36.000                             : en:15\r\n01:07:21.000                             : en:16\r\n01:11:34.000                             : en:17\r\n01:16:28.000                             : en:18\r\n01:21:36.000                             : en:19\r\n01:26:56.000                             : en:20","torrent":{"xt":"urn:btih:05df0580daf97dff9b7c2d41d742d2f4a4daefd9","amp;dn":"The.Forest.2016.1080p.WEB-DL.DD5.1.H264-RARBG","amp;tr":["udp%3A%2F%2Ftracker.leechers-paradise.org%3A6969","udp%3A%2F%2Fzer0day.ch%3A1337","udp%3A%2F%2Fopen.demonii.com%3A1337","udp%3A%2F%2Ftracker.coppersurfer.tk%3A6969","udp%3A%2F%2Fexodus.desync.com%3A6969"],"infoHash":"05df0580daf97dff9b7c2d41d742d2f4a4daefd9","infoHashBuffer":{"type":"Buffer","data":[5,223,5,128,218,249,125,255,155,124,45,65,215,66,210,244,164,218,239,217]},"announce":[],"urlList":[]}}